<?xml version="1.0" encoding="utf-8"?>
<!-- Generator: Adobe Illustrator 24.2.0, SVG Export Plug-In . SVG Version: 6.00 Build 0)  -->
<svg version="1.1" id="_x2018_ëîé_x5F_1" xmlns="http://www.w3.org/2000/svg" xmlns:xlink="http://www.w3.org/1999/xlink"
	 x="0px" y="0px" viewBox="0 0 394.43 197.22" style="enable-background:new 0 0 394.43 197.22;" xml:space="preserve">
<style type="text/css">
	.st0{fill:#FF172C;}
	.st1{fill:#1C1B1A;}
	.st2{fill:#3C3C3B;}
	.st3{fill:#D9D9D9;}
	.st4{fill:url(#SVGID_1_);}
	.st5{fill:url(#SVGID_2_);}
	.st6{fill:url(#SVGID_3_);}
	.st7{fill:url(#SVGID_4_);}
	.st8{fill:url(#SVGID_5_);}
	.st9{fill:url(#SVGID_6_);}
	.st10{fill:url(#SVGID_7_);}
	.st11{fill:url(#SVGID_8_);}
	.st12{fill:#FFFFFF;}
</style>
<g>
	<g>
		<path class="st0" d="M351.9,59.28c-1.13,0.13-2.26,0.24-3.4,0.37c-1.39-2.06-2.79-4.11-4.19-6.13l-7.47-10.76
			c-49.49,7.53-92.56,12.11-148.55,11.53c-60.09-0.62-98.6-6.36-150.76-14.83v19.3l-18.66-2.07v124.24
			c29.54-5.47,92.9-19,181.24-18.68c73.83,0.26,122.13,8.86,175.17,18.68V56.68L351.9,59.28z"/>
		<path class="st1" d="M354.61,112.46l11.28-0.31V66.91l-12.92,1.43c-3.05,0.34-6.12,0.67-9.2,0.99c-2.38-3.61-4.81-7.2-7.25-10.71
			l-4.13-5.94c-44.88,6.82-75.27,9.84-125.49,10.74l-3.4,4.24c-1.01,1.26-2.06,2.57-3.15,3.92c-1.05-1.29-2.1-2.58-3.15-3.87
			l-3.44-4.24c-56.93-0.59-92.65-4.43-146.82-13.24v18.74c-1.92-0.21-3.84-0.41-5.74-0.62l-12.92-1.43v45.25l11.28,0.31
			c3.55,0.1,7.11,0.19,10.66,0.28v9.52l-3.28,0.29v0.04c-2.77,0.27-5.53,0.54-8.26,0.82l-10.4,1.06v45.43
			c53.16-9.85,164.57-32.05,337.62,0v-45.43l-10.4-1.06c-2.73-0.28-5.5-0.55-8.26-0.82v-9.93
			C349.69,112.59,352.16,112.53,354.61,112.46z"/>
		<path class="st2" d="M337.99,104.27c4.96-0.12,9.91-0.25,14.85-0.39l2.66-0.07V76.53l-3.05,0.34c-4.91,0.55-9.89,1.08-14.81,1.58
			l-0.62,0.06v-1.4l-0.42-0.66c-2.83-4.38-5.75-8.77-8.69-13.04L326.94,62l-1.72,0.26c-7.89,1.21-15.91,2.33-23.82,3.31l-1.31,0.16
			l-0.69,1.1c-2.37,3.81-4.81,7.63-7.26,11.39V66.68l-3.04,0.33c-13.23,1.45-26.68,2.6-39.98,3.42l-2.56,0.16l0,11.21
			c-2.48-3.09-5.05-6.26-7.84-9.68l-0.87-1.07l-1.39,0.07c-7.96,0.37-16.03,0.63-23.99,0.78l-1.31,0.02l-0.8,1.01
			c-2.62,3.29-5.47,6.86-8.72,10.89l-0.59,0.73v39.46c-0.69,0-1.34,0-1.42,0v-13.58l-2.83-3.41l2.83-3.47v-19l-0.59-0.73
			c-2.91-3.59-5.81-7.19-8.72-10.81l-0.81-1.01l-1.31-0.01c-11.2-0.12-22.55-0.46-33.73-1.03l-1.75-0.09l-1.9-0.1
			c-13.29-0.73-26.75-1.79-39.99-3.15l-1.84-0.19l-1.81-0.19c-7.12-0.76-14.32-1.63-21.4-2.57l-2.1-0.28l-2-0.28
			c-7.08-0.98-14.26-2.06-21.33-3.22l-3.19-0.52v18.14l-0.62-0.06c-4.97-0.5-9.96-1.03-14.82-1.58l-3.05-0.34v27.28l2.66,0.07
			c4.94,0.14,9.9,0.27,14.85,0.39l2.81,0.07V86.35c0.67,0.06,1.3,0.12,1.41,0.13v43.62c-0.11,0.01-0.74,0.07-1.41,0.13v0l-1.24,0.11
			c-0.35,0.03-0.6,0.05-0.6,0.05v0L56,130.49c-4.96,0.46-9.96,0.95-14.87,1.45l-2.45,0.25v27.32l3.25-0.61
			c4.9-0.92,9.88-1.8,14.8-2.63l1.78-0.3l1.84-0.3c7.05-1.16,14.23-2.24,21.33-3.22l2.01-0.28l2.08-0.28
			c7.1-0.94,14.3-1.81,21.4-2.57l1.73-0.19l1.92-0.2c13.24-1.36,26.69-2.42,39.99-3.15l1.76-0.1l1.9-0.1
			c7.14-0.36,14.38-0.63,21.51-0.81l2.67-0.07v-20.61c0,0-3.11,0.04-3.28,0.05v-6.74c1.14-0.01,2.29-0.01,3.43-0.02l0.35,0.43v26.88
			l2.79-0.05c5.03-0.09,10.14-0.14,15.18-0.14c1.02,0,2.04,0,3.06,0.01l2.75,0.01V134.4c2.71,3.34,5.15,6.38,7.45,9.25l0.8,1
			l1.3,0.02c7.97,0.15,16.04,0.41,23.99,0.78l1.39,0.06l0.87-1.06c2.79-3.39,5.37-6.54,7.85-9.62l0,11.14l2.56,0.16
			c13.28,0.82,26.73,1.97,39.98,3.42l3.04,0.33V138.4c2.46,3.75,4.9,7.56,7.27,11.34l0.69,1.1l1.3,0.16
			c7.92,0.99,15.94,2.1,23.82,3.31l1.72,0.26l0.97-1.41c2.45-3.55,4.89-7.18,7.28-10.82v13.56l2.27,0.38
			c4.92,0.83,9.89,1.71,14.8,2.63l3.25,0.61V132.2l-2.45-0.25c-4.91-0.5-9.91-0.99-14.87-1.45l-1.16-0.11v-18.37l-0.37-0.63
			c-2.6-4.38-5.27-8.74-7.95-13c1.92-0.09,3.83-0.17,5.72-0.26l0.77-0.04v6.25L337.99,104.27z M85.92,128.03
			c-0.24,0.02-1.89,0.14-1.89,0.14v0c0,0-3.15,0.24-3.26,0.25v-8.4c1.72-0.05,3.43-0.1,5.15-0.15V128.03z M85.92,94.36
			c-1.72-0.06-3.43-0.13-5.15-0.19v-6.01c0.1,0.01,3.26,0.25,3.26,0.25v0c0,0,1.65,0.12,1.89,0.14V94.36z M111.05,126.41
			c-0.1,0.01-0.76,0.04-1.45,0.08v0c0,0-0.46,0.03-1.03,0.06c-0.45,0.03-0.79,0.04-0.79,0.04v0c-0.72,0.04-1.4,0.08-1.45,0.09v-36.8
			c0.06,0,0.73,0.04,1.45,0.09v0c0,0,0.33,0.02,0.79,0.04c0.57,0.03,1.03,0.06,1.03,0.06v0c0.7,0.04,1.35,0.08,1.45,0.08V126.41z
			 M154.86,124.59c-0.09,0-0.76,0.02-1.48,0.04v-2.75l-2.81,0.07c-4.07,0.1-8.22,0.23-12.34,0.36l-2.65,0.09v2.84
			c-1.36,0.05-2.72,0.11-4.09,0.17v-3.47c3.93-0.09,7.86-0.18,11.79-0.25l2.68-0.05V94.94l-2.68-0.05
			c-3.93-0.08-7.86-0.16-11.79-0.25v-3.47c1.36,0.06,2.72,0.11,4.09,0.17v2.75l2.65,0.09c4.09,0.13,8.24,0.26,12.34,0.36l2.81,0.07
			v-2.67c0.71,0.02,1.38,0.04,1.48,0.04V124.59z M179.13,96.39l-0.34,0.41c-1.15-0.01-2.29-0.01-3.44-0.02V92.4
			c1.14,0.02,2.27,0.03,3.41,0.04l0.37,0.45V96.39z M227.55,123.99l-0.26,0.32c-1.8-0.04-3.59-0.07-5.39-0.1l-0.35-0.42V92.83
			l0.38-0.48c1.78-0.03,3.55-0.06,5.33-0.09l0.3,0.38V123.99z M249.83,124.92c-0.08,0-0.97-0.03-1.8-0.06V91.72
			c0.83-0.03,1.72-0.06,1.8-0.06V124.92z M293.15,117.17l-2.83-0.1v6.69l-0.78-0.04c-4.08-0.21-8.22-0.41-12.31-0.59l-2.86-0.13
			l0,2.94c-1.36-0.07-2.72-0.13-4.08-0.2v-3.63c3.88,0.1,7.76,0.21,11.63,0.33l2.82,0.09V94.03l-2.82,0.09
			c-3.88,0.12-7.75,0.23-11.63,0.33v-3.63c1.36-0.06,2.72-0.13,4.08-0.2l0,2.85l2.86-0.13c4.09-0.18,8.23-0.38,12.31-0.59l0.78-0.04
			v12.92l0.48,0.69c2.56,3.64,5.11,7.34,7.58,11.03C296.63,117.29,294.89,117.23,293.15,117.17z M316.66,128.12
			c-0.12,0.17-0.23,0.34-0.35,0.52c-1.65-0.13-3.31-0.25-4.96-0.38c-0.21-0.33-0.41-0.65-0.62-0.97v-6.86
			c1.79,0.06,3.59,0.11,5.38,0.17c0.18,0.3,0.36,0.6,0.55,0.91V128.12z M316.66,96.26c-1.83,0.06-3.67,0.11-5.5,0.17
			c-0.14-0.2-0.28-0.4-0.42-0.6v-6.56c0.2-0.32,0.41-0.64,0.61-0.96c1.65-0.12,3.29-0.25,4.94-0.38c0.12,0.19,0.25,0.38,0.37,0.57
			V96.26z"/>
		<g>
			<path class="st3" d="M59.02,101.59c-4.86-0.12-9.71-0.25-14.55-0.39c0-7.22,0-14.44,0-21.66c4.85,0.55,9.7,1.08,14.55,1.58
				C59.02,87.94,59.02,94.77,59.02,101.59z M59.02,153.64c-4.86,0.84-9.71,1.72-14.55,2.64c0-7.22,0-14.44,0-21.66
				c4.85-0.51,9.7-0.99,14.55-1.45C59.02,139.99,59.02,146.81,59.02,153.64z"/>
			<path class="st3" d="M90.78,130.52c0-4.48,0-8.95,0-13.43c-3.47,0.1-6.94,0.2-10.41,0.31c0,4.64,0,9.27,0,13.91
				c1.06-0.08,2.13-0.17,3.19-0.25c0,6.25,0,12.49,0,18.74c-7,0.99-14,2.06-20.98,3.23c0-6.73,0-13.46,0-20.2
				c1.06-0.1,2.12-0.19,3.18-0.29c0-16.17,0-32.35,0-48.52c-1.06-0.1-2.12-0.19-3.18-0.29c0-6.73,0-13.46,0-20.2
				c6.98,1.17,13.98,2.25,20.98,3.23c0,6.25,0,12.49,0,18.74c-1.06-0.08-2.13-0.17-3.19-0.25c0,3.83,0,7.66,0,11.49
				c3.47,0.14,6.94,0.27,10.41,0.4c0-3.7,0-7.4,0-11.09c-1.07-0.08-2.13-0.16-3.2-0.23c0-6.16,0-12.32,0-18.49
				c7.01,0.95,14.02,1.81,21.05,2.58c0,5.77,0,11.55,0,17.32c-1.07-0.06-2.13-0.13-3.2-0.2c0,14.17,0,28.34,0,42.5
				c1.07-0.07,2.13-0.13,3.2-0.2c0,5.77,0,11.55,0,17.32c-7.02,0.77-14.04,1.63-21.05,2.58c0-6.16,0-12.32,0-18.49
				C88.65,130.68,89.71,130.6,90.78,130.52z"/>
			<path class="st3" d="M130.11,128.21c3.12-0.14,6.25-0.27,9.37-0.39c0-0.94,0-1.88,0-2.82c4.02-0.13,8.05-0.25,12.08-0.36
				c0,6.16,0,12.32,0,18.48c-13.13,0.74-26.25,1.79-39.34,3.16c0-5.72,0-11.43,0-17.15c1.07-0.06,2.14-0.12,3.2-0.18
				c0-13.78,0-27.55,0-41.33c-1.07-0.06-2.14-0.12-3.2-0.18c0-5.72,0-11.43,0-17.15c13.09,1.37,26.21,2.42,39.34,3.16
				c0,6.13,0,12.27,0,18.4c-4.03-0.11-8.05-0.23-12.08-0.36c0-0.91,0-1.82,0-2.74c-3.13-0.12-6.25-0.25-9.37-0.39
				c0,3.9,0,7.79,0,11.69c0.73,0.01,1.45,0.03,2.18,0.04c0-0.93,0-1.85,0-2.78c4,0.1,8,0.18,12.01,0.26c0,7.14,0,14.29,0,21.43
				c-4,0.08-8.01,0.17-12.01,0.26c0-0.95,0-1.91,0-2.86c-0.73,0.01-1.45,0.03-2.18,0.04C130.11,120.36,130.11,124.29,130.11,128.21z
				"/>
			<path class="st3" d="M173.09,126.89c1.07-0.02,2.14-0.03,3.22-0.05c0,5.09,0,10.18,0,15.27c-7.05,0.18-14.11,0.45-21.15,0.81
				c0-5.21,0-10.42,0-15.64c1.07-0.03,2.14-0.06,3.21-0.09c0-12.61,0-25.22,0-37.84c-1.07-0.03-2.14-0.06-3.21-0.09
				c0-5.21,0-10.42,0-15.64c11.05,0.57,22.12,0.91,33.18,1.03c2.85,3.63,5.7,7.23,8.56,10.82c0,5.71,0,11.41,0,17.12
				c-1.18,1.47-2.36,2.95-3.54,4.42c1.18,1.45,2.36,2.9,3.54,4.35c0,5.1,0,10.21,0,15.31c1.07,0,2.14,0,3.22,0
				c0,5.05,0,10.1,0,15.15c-5.98-0.02-11.97,0.02-17.95,0.13c0-8.36,0-16.72,0-25.08c-0.58-0.73-1.16-1.45-1.74-2.18
				c-2.44,0.01-4.89,0.02-7.33,0.03C173.09,118.8,173.09,122.85,173.09,126.89z M173.09,99.45c2.44,0.02,4.89,0.03,7.33,0.05
				c0.58-0.72,1.16-1.44,1.74-2.16c0-1.79,0-3.58,0-5.38c-0.58-0.73-1.16-1.46-1.74-2.19c-2.44-0.03-4.89-0.06-7.33-0.1
				C173.09,92.94,173.09,96.19,173.09,99.45z"/>
			<path class="st3" d="M203.65,85.49c2.85-3.61,5.7-7.24,8.56-10.91c7.87-0.15,15.74-0.41,23.6-0.78c2.85,3.56,5.7,7.14,8.55,10.77
				c0,15.83,0,31.67,0,47.5c-2.85,3.6-5.7,7.16-8.55,10.69c-7.86-0.37-15.73-0.63-23.6-0.78c-2.85-3.64-5.7-7.24-8.56-10.83
				C203.65,115.94,203.65,100.71,203.65,85.49z M229.63,91.73c-0.56-0.73-1.11-1.45-1.67-2.18c-2.61,0.05-5.23,0.1-7.85,0.14
				c-0.58,0.74-1.16,1.48-1.74,2.21c0,10.95,0,21.89,0,32.84c0.58,0.71,1.16,1.42,1.74,2.13c2.62,0.04,5.23,0.09,7.85,0.14
				c0.56-0.7,1.11-1.4,1.67-2.09C229.63,113.86,229.63,102.79,229.63,91.73z"/>
			<path class="st3" d="M266.18,128.31c3.12,0.15,6.24,0.3,9.36,0.47c0-0.99,0-1.97,0-2.96c4.02,0.18,8.03,0.38,12.05,0.59
				c0,6.83,0,13.66,0,20.49c-13.08-1.46-26.2-2.61-39.32-3.43c0-5.29,0-10.58,0-15.88c1.07,0.04,2.14,0.08,3.21,0.11
				c0-12.94,0-25.88,0-38.82c-1.07,0.04-2.14,0.08-3.21,0.11c0-5.29,0-10.58,0-15.88c13.13-0.83,26.24-1.97,39.32-3.43
				c0,6.8,0,13.6,0,20.39c-4.01,0.21-8.03,0.41-12.05,0.59c0-0.96,0-1.91,0-2.87c-3.12,0.17-6.24,0.32-9.36,0.47
				c0,3.91,0,7.83,0,11.74c0.73-0.01,1.45-0.03,2.18-0.04c0-0.94,0-1.88,0-2.82c4-0.11,7.99-0.22,11.99-0.35c0,7.66,0,15.32,0,22.98
				c-3.99-0.12-7.99-0.24-11.99-0.35c0-0.97,0-1.94,0-2.91c-0.73-0.01-1.45-0.03-2.18-0.04
				C266.18,120.42,266.18,124.37,266.18,128.31z"/>
			<path class="st3" d="M315.34,117.96c-5.21-0.18-10.43-0.34-15.65-0.49c-2.83-4.34-5.67-8.56-8.51-12.67c0-7.67,0-15.33,0-23
				c2.84-4.4,5.67-8.92,8.51-13.56c7.82-0.99,15.63-2.1,23.43-3.32c2.83,4.19,5.65,8.51,8.47,12.97c0,5.85,0,11.71,0,17.56
				c-4.86,0.23-9.73,0.45-14.6,0.66c0-2.79,0-5.59,0-8.38c-0.55-0.87-1.11-1.73-1.66-2.59c-2.6,0.21-5.19,0.41-7.79,0.61
				c-0.58,0.92-1.15,1.84-1.73,2.76c0,2.73,0,5.45,0,8.18c0.58,0.82,1.15,1.65,1.73,2.48c5.2-0.16,10.39-0.33,15.57-0.51
				c2.83,4.55,5.65,9.25,8.47,14.09c0,8.67,0,17.33,0,26c-2.82,4.44-5.65,8.74-8.47,12.92c-7.8-1.22-15.61-2.33-23.43-3.32
				c-2.83-4.62-5.67-9.12-8.51-13.49c0-5,0-9.99,0-14.99c4.89,0.17,9.77,0.35,14.65,0.54c0,2.55,0,5.1,0,7.65
				c0.58,0.92,1.15,1.85,1.73,2.78c2.6,0.2,5.19,0.4,7.79,0.61c0.55-0.83,1.11-1.67,1.66-2.51c0-2.72,0-5.43,0-8.15
				C316.44,119.83,315.89,118.89,315.34,117.96z"/>
			<path class="st3" d="M349.71,101.2c-4.85,0.14-9.7,0.27-14.55,0.39c0-6.82,0-13.65,0-20.47c4.86-0.5,9.71-1.03,14.55-1.58
				C349.71,86.76,349.71,93.98,349.71,101.2z M349.71,156.28c-4.85-0.92-9.7-1.8-14.55-2.64c0-6.82,0-13.65,0-20.47
				c4.86,0.46,9.71,0.94,14.55,1.45C349.71,141.83,349.71,149.06,349.71,156.28z"/>
		</g>
		<g>
			<linearGradient id="SVGID_1_" gradientUnits="userSpaceOnUse" x1="51.7402" y1="151.104" x2="51.7402" y2="68.5952">
				<stop  offset="0.4938" style="stop-color:#D9D9D9"/>
				<stop  offset="0.5" style="stop-color:#DBDBDB"/>
				<stop  offset="0.5022" style="stop-color:#E2E2E2"/>
				<stop  offset="0.5038" style="stop-color:#EDEDED"/>
				<stop  offset="0.505" style="stop-color:#FEFEFE"/>
				<stop  offset="0.5051" style="stop-color:#FFFFFF"/>
			</linearGradient>
			<path class="st4" d="M48.76,138.49c1.98-0.2,3.98-0.4,5.97-0.6v12.14c-1.99,0.35-3.98,0.71-5.97,1.08V138.49z M48.76,97.02V84.34
				c1.98,0.22,3.97,0.43,5.97,0.65v12.2C52.73,97.13,50.74,97.08,48.76,97.02z"/>
			<linearGradient id="SVGID_2_" gradientUnits="userSpaceOnUse" x1="85.6062" y1="151.1039" x2="85.6062" y2="68.5955">
				<stop  offset="0.4938" style="stop-color:#D9D9D9"/>
				<stop  offset="0.5" style="stop-color:#DBDBDB"/>
				<stop  offset="0.5022" style="stop-color:#E2E2E2"/>
				<stop  offset="0.5038" style="stop-color:#EDEDED"/>
				<stop  offset="0.505" style="stop-color:#FEFEFE"/>
				<stop  offset="0.5051" style="stop-color:#FFFFFF"/>
			</linearGradient>
			<path class="st5" d="M66.87,136.76l3.18-0.28V80.1l-3.18-0.28V68.6c4.12,0.66,8.27,1.3,12.39,1.9v10.37l-3.19-0.25v20.26
				l4.12,0.16c3.47,0.14,6.95,0.27,10.43,0.4l4.45,0.16V82.06l-3.2-0.23v-9.6c4.14,0.54,8.31,1.04,12.46,1.52v8.92l-3.2-0.2v51.64
				l3.2-0.2v8.92c-4.15,0.47-8.31,0.98-12.46,1.52v-9.6l3.2-0.23v-21.84l-4.42,0.13c-3.48,0.1-6.95,0.2-10.42,0.31l-4.16,0.13v22.71
				l3.19-0.25v10.37c-4.13,0.6-8.27,1.24-12.39,1.9V136.76z"/>
			<linearGradient id="SVGID_3_" gradientUnits="userSpaceOnUse" x1="131.8876" y1="151.1039" x2="131.8876" y2="68.5952">
				<stop  offset="0.4938" style="stop-color:#D9D9D9"/>
				<stop  offset="0.5" style="stop-color:#DBDBDB"/>
				<stop  offset="0.5022" style="stop-color:#E2E2E2"/>
				<stop  offset="0.5038" style="stop-color:#EDEDED"/>
				<stop  offset="0.505" style="stop-color:#FEFEFE"/>
				<stop  offset="0.5051" style="stop-color:#FFFFFF"/>
			</linearGradient>
			<path class="st6" d="M116.51,133.19l3.2-0.18V83.56l-3.2-0.18v-8.34c10.21,1.01,20.52,1.83,30.75,2.46v9.94
				c-1.16-0.03-2.33-0.07-3.49-0.1v-2.71l-4.13-0.16c-3.12-0.12-6.23-0.25-9.35-0.39l-4.49-0.2v20.39l6.4,0.12l4.37,0.08v-2.75
				c1.14,0.03,2.28,0.05,3.42,0.07v13.02c-1.14,0.02-2.28,0.05-3.42,0.08v-2.84l-6.56,0.12l-4.21,0.08v20.48l4.49-0.2
				c3.11-0.14,6.23-0.27,9.35-0.39l4.13-0.16v-2.79c1.16-0.04,2.33-0.07,3.49-0.1v10.02c-10.24,0.63-20.55,1.45-30.75,2.46V133.19z"
				/>
			<linearGradient id="SVGID_4_" gradientUnits="userSpaceOnUse" x1="177.6326" y1="151.104" x2="177.6326" y2="68.5955">
				<stop  offset="0.4938" style="stop-color:#D9D9D9"/>
				<stop  offset="0.5" style="stop-color:#DBDBDB"/>
				<stop  offset="0.5022" style="stop-color:#E2E2E2"/>
				<stop  offset="0.5038" style="stop-color:#EDEDED"/>
				<stop  offset="0.505" style="stop-color:#FEFEFE"/>
				<stop  offset="0.5051" style="stop-color:#FFFFFF"/>
			</linearGradient>
			<path class="st7" d="M159.45,131.47l3.21-0.08v-46.2l-3.21-0.08v-6.95c8.9,0.41,17.89,0.68,26.79,0.79
				c2.12,2.69,4.24,5.37,6.37,8.05v14.12l-4.76,5.95l4.76,5.86v18.08h3.22v6.57c-3.11,0.01-6.24,0.03-9.36,0.07V115.4l-3.97-4.98
				l-2.08,0.01c-2.45,0.01-4.89,0.02-7.34,0.04l-4.27,0.02v20.77l3.22-0.05v6.74c-4.18,0.13-8.38,0.29-12.57,0.48V131.47z
				 M168.8,103.71l4.26,0.03c2.45,0.02,4.89,0.04,7.34,0.05l2.07,0.01l3.98-4.95v-8.39l-3.94-4.96l-2.04-0.02
				c-2.44-0.03-4.87-0.06-7.31-0.1l-4.36-0.07V103.71z"/>
			<linearGradient id="SVGID_5_" gradientUnits="userSpaceOnUse" x1="224" y1="151.104" x2="224" y2="68.5956">
				<stop  offset="0.4938" style="stop-color:#D9D9D9"/>
				<stop  offset="0.5" style="stop-color:#DBDBDB"/>
				<stop  offset="0.5022" style="stop-color:#E2E2E2"/>
				<stop  offset="0.5038" style="stop-color:#EDEDED"/>
				<stop  offset="0.505" style="stop-color:#FEFEFE"/>
				<stop  offset="0.5051" style="stop-color:#FFFFFF"/>
			</linearGradient>
			<path class="st8" d="M233.83,138.38c-6.47-0.29-13.02-0.51-19.5-0.64c-1.98-2.52-4.09-5.18-6.38-8.07V86.98
				c2.32-2.94,4.42-5.62,6.39-8.15c6.47-0.14,13.01-0.35,19.48-0.64c2.19,2.74,4.25,5.34,6.24,7.87v44.52
				C238.07,133.1,236.01,135.67,233.83,138.38z M227.87,85.26c-2.61,0.05-5.22,0.1-7.82,0.14L218,85.43l-3.91,4.99v35.85l3.96,4.87
				l2,0.03c2.61,0.04,5.22,0.09,7.82,0.14l2.12,0.04l3.94-4.93V90.27l-2.56-3.34l-1.32-1.72L227.87,85.26z"/>
			<linearGradient id="SVGID_6_" gradientUnits="userSpaceOnUse" x1="267.93" y1="151.104" x2="267.93" y2="68.5956">
				<stop  offset="0.4938" style="stop-color:#D9D9D9"/>
				<stop  offset="0.5" style="stop-color:#DBDBDB"/>
				<stop  offset="0.5022" style="stop-color:#E2E2E2"/>
				<stop  offset="0.5038" style="stop-color:#EDEDED"/>
				<stop  offset="0.505" style="stop-color:#FEFEFE"/>
				<stop  offset="0.5051" style="stop-color:#FFFFFF"/>
			</linearGradient>
			<path class="st9" d="M283.3,142.11c-10.21-1.08-20.51-1.98-30.74-2.67v-7.41l3.21,0.12V84.42l-3.21,0.12v-7.41
				c10.23-0.7,20.53-1.59,30.74-2.67v11.53c-1.15,0.06-2.31,0.12-3.46,0.17l0-2.9l-4.52,0.24c-3.11,0.17-6.22,0.32-9.34,0.47
				l-4.09,0.19v20.21l10.77-0.21v-2.85c1.13-0.03,2.27-0.06,3.4-0.1v14.13c-1.13-0.03-2.27-0.07-3.4-0.1v-2.94l-10.77-0.21v20.3
				l4.09,0.19c3.11,0.15,6.23,0.3,9.34,0.47l4.52,0.24l0-2.99c1.15,0.06,2.31,0.11,3.46,0.17V142.11z"/>
			<linearGradient id="SVGID_7_" gradientUnits="userSpaceOnUse" x1="311.3832" y1="151.104" x2="311.3832" y2="68.5951">
				<stop  offset="0.4938" style="stop-color:#D9D9D9"/>
				<stop  offset="0.5" style="stop-color:#DBDBDB"/>
				<stop  offset="0.5022" style="stop-color:#E2E2E2"/>
				<stop  offset="0.5038" style="stop-color:#EDEDED"/>
				<stop  offset="0.505" style="stop-color:#FEFEFE"/>
				<stop  offset="0.5051" style="stop-color:#FFFFFF"/>
			</linearGradient>
			<path class="st10" d="M321.08,147c-6.24-0.96-12.55-1.85-18.82-2.66c-2.22-3.6-4.5-7.21-6.8-10.76v-9.27
				c2.01,0.07,4.04,0.15,6.06,0.23v4.75l0.65,1.04c0.57,0.91,1.14,1.83,1.71,2.76l1.15,1.86l2.18,0.16c2.59,0.19,5.18,0.4,7.77,0.6
				l2.52,0.2l1.4-2.11c0.56-0.84,1.11-1.68,1.67-2.53l0.7-1.07v-10.6l-0.59-1.01c-0.56-0.95-1.11-1.89-1.67-2.82l-1.2-2.02
				l-2.35-0.08c-4.47-0.15-8.95-0.29-13.43-0.43c-2.15-3.27-4.36-6.55-6.58-9.78v-20.4c2.29-3.57,4.58-7.2,6.8-10.83
				c6.26-0.81,12.56-1.7,18.8-2.66c2.1,3.15,4.19,6.35,6.22,9.56v12.22c-2,0.09-4,0.18-6.01,0.27v-5.15l-0.67-1.05
				c-0.56-0.88-1.11-1.74-1.67-2.61l-1.39-2.16l-2.56,0.21c-2.59,0.21-5.18,0.41-7.77,0.6l-2.17,0.16l-1.15,1.85
				c-0.57,0.92-1.14,1.83-1.71,2.74l-0.66,1.05v10.77l0.78,1.11c0.57,0.81,1.14,1.63,1.71,2.46l1.33,1.92l2.33-0.07
				c4.37-0.13,8.74-0.27,13.1-0.42c2.2,3.57,4.38,7.22,6.52,10.88v23.59C325.26,140.68,323.18,143.87,321.08,147z"/>
			<linearGradient id="SVGID_8_" gradientUnits="userSpaceOnUse" x1="342.4326" y1="151.104" x2="342.4326" y2="68.5952">
				<stop  offset="0.4938" style="stop-color:#D9D9D9"/>
				<stop  offset="0.5" style="stop-color:#DBDBDB"/>
				<stop  offset="0.5022" style="stop-color:#E2E2E2"/>
				<stop  offset="0.5038" style="stop-color:#EDEDED"/>
				<stop  offset="0.505" style="stop-color:#FEFEFE"/>
				<stop  offset="0.5051" style="stop-color:#FFFFFF"/>
			</linearGradient>
			<path class="st11" d="M345.42,151.1c-1.99-0.37-3.98-0.73-5.97-1.08v-12.14c1.99,0.19,3.99,0.39,5.97,0.6V151.1z M339.45,84.99
				c1.99-0.21,3.98-0.43,5.97-0.65v12.68c-1.99,0.05-3.98,0.11-5.97,0.16V84.99z"/>
		</g>
	</g>
	<g>
		<path class="st0" d="M304.37,30.62c-10.89,1.38-23.19,3.01-42.41,4.58l-0.31,0.03l-0.54-7.57c-43.32,3.11-74.21,3.66-123.02,0.38
			l-1.74,5.82c-0.16,0.54-0.33,1.09-0.49,1.64l-3.65-0.3c-19.22-1.57-31.6-3.21-42.4-4.58l-2.28,18.02
			c15.02,1.9,24.85,3.16,43.2,4.66l0.49,0.04l-0.35,4.94c46.68,3.35,79.39,3.81,132.44,0l-0.35-4.94l0.49-0.04
			c18.27-1.49,28.27-2.78,43.2-4.66L304.37,30.62z"/>
		<g>
			<path class="st12" d="M102.46,42.83c-2.15-0.25-4.29-0.52-6.44-0.79c0.12-0.98,0.25-1.95,0.37-2.93
				c2.14,0.27,4.28,0.53,6.42,0.78C102.7,40.88,102.58,41.86,102.46,42.83z"/>
			<path class="st12" d="M116.9,44.41c-2.15-0.21-4.3-0.44-6.45-0.67c0.11-0.98,0.21-1.95,0.32-2.93c2.14,0.23,4.28,0.45,6.43,0.67
				C117.09,42.45,116.99,43.43,116.9,44.41z"/>
			<path class="st12" d="M131.35,45.72c-2.15-0.18-4.31-0.36-6.46-0.55c0.09-0.98,0.18-1.96,0.26-2.94
				c2.14,0.19,4.29,0.38,6.43,0.55C131.51,43.76,131.43,44.74,131.35,45.72z"/>
			<path class="st12" d="M149.17,51.9c-1.52-0.09-3.04-0.18-4.55-0.28c0.06-0.99,0.13-1.97,0.19-2.96c0.23,0.02,0.47,0.03,0.7,0.05
				c-0.04-0.27-0.07-0.54-0.11-0.81c-0.71-0.05-1.42-0.09-2.12-0.14c-0.08,0.26-0.16,0.53-0.23,0.79c0.23,0.02,0.47,0.03,0.7,0.05
				c-0.07,0.99-0.13,1.97-0.2,2.96c-1.52-0.1-3.03-0.21-4.55-0.31c0.07-0.99,0.14-1.97,0.21-2.96c0.24,0.02,0.48,0.03,0.72,0.05
				c1.25-4.1,2.49-8.19,3.71-12.29c0.97,0.07,1.94,0.13,2.9,0.19c0.68,4.23,1.37,8.45,2.07,12.67c0.24,0.01,0.48,0.03,0.72,0.04
				C149.28,49.93,149.23,50.91,149.17,51.9z M145.05,45.84c-0.14-0.86-0.28-1.73-0.41-2.59c-0.26,0.84-0.51,1.67-0.77,2.51
				C144.26,45.79,144.66,45.81,145.05,45.84z"/>
			<path class="st12" d="M155.78,39.73c0.05-0.99,0.1-1.98,0.15-2.96c1.49,0.08,2.98,0.15,4.47,0.22c-0.05,0.99-0.09,1.98-0.14,2.96
				c-0.26-0.01-0.52-0.02-0.77-0.04c0.09,1.41,0.19,2.83,0.28,4.24c0.51-1.25,1.02-2.5,1.53-3.75c0.39,1.29,0.79,2.58,1.19,3.87
				c0.22-1.4,0.44-2.8,0.66-4.2c-0.26-0.01-0.53-0.02-0.79-0.03c0.04-0.99,0.09-1.98,0.13-2.97c1.49,0.06,2.98,0.13,4.47,0.18
				c-0.04,0.99-0.07,1.98-0.11,2.97c-0.23-0.01-0.45-0.02-0.67-0.03c-0.64,4.15-1.28,8.3-1.94,12.45c-0.79-0.03-1.59-0.07-2.38-0.1
				c-0.32-1.04-0.64-2.07-0.95-3.11c-0.41,1-0.83,2.01-1.25,3.01c-0.79-0.04-1.59-0.07-2.38-0.11c-0.27-4.19-0.54-8.38-0.79-12.58
				C156.24,39.75,156.01,39.74,155.78,39.73z"/>
			<path class="st12" d="M174.43,53c0.03-0.99,0.06-1.98,0.08-2.97c0.25,0.01,0.5,0.01,0.74,0.02c0.09-3.18,0.17-6.37,0.26-9.55
				c-0.24-0.01-0.49-0.01-0.73-0.02c0.03-0.99,0.06-1.98,0.08-2.97c3.06,0.09,6.12,0.15,9.18,0.2c-0.02,1.41-0.05,2.82-0.07,4.23
				c-1-0.02-2-0.03-3-0.05c0.01-0.42,0.02-0.84,0.03-1.26c-0.83-0.02-1.67-0.03-2.5-0.05c-0.03,1.09-0.05,2.19-0.08,3.28
				c0.37,0.01,0.74,0.02,1.12,0.03c0.01-0.27,0.01-0.54,0.02-0.81c1,0.02,2.01,0.04,3.01,0.06c-0.03,1.53-0.06,3.05-0.08,4.58
				c-1.01-0.02-2.02-0.04-3.03-0.06c0.01-0.27,0.01-0.54,0.02-0.81c-0.37-0.01-0.75-0.02-1.12-0.03c-0.03,1.1-0.05,2.2-0.08,3.3
				c0.84,0.02,1.69,0.04,2.53,0.06c0.01-0.42,0.02-0.84,0.03-1.26c1.01,0.02,2.02,0.04,3.03,0.06c-0.02,1.41-0.05,2.82-0.07,4.23
				C180.66,53.16,177.54,53.09,174.43,53z"/>
			<path class="st12" d="M201.08,42.46c-1,0-2,0.01-3.01,0.01c0-0.31,0-0.62,0-0.92c-0.25-0.25-0.5-0.5-0.76-0.75
				c-0.54,0-1.09,0-1.63,0c-0.25,0.25-0.5,0.5-0.76,0.75c0,0.6,0,1.19,0,1.79c0.25,0.25,0.5,0.5,0.76,0.75c0.96,0,1.91,0,2.87,0
				c0.85,0.83,1.69,1.66,2.55,2.49c0.01,1.42,0.01,2.83,0.02,4.25c-0.85,0.84-1.7,1.67-2.55,2.51c-1.04,0-2.08,0-3.13,0
				c-0.18-0.17-0.36-0.34-0.54-0.51c0,0.17,0,0.34,0,0.51c-1.02,0-2.03-0.01-3.05-0.01c0.01-1.55,0.02-3.11,0.03-4.66
				c1.01,0.01,2.02,0.01,3.03,0.01c0,0.31,0,0.63,0,0.94c0.25,0.25,0.51,0.5,0.76,0.75c0.55,0,1.1,0,1.65,0
				c0.25-0.25,0.51-0.5,0.76-0.75c0-0.6,0-1.19,0-1.79c-0.25-0.26-0.51-0.51-0.76-0.77c-0.96,0-1.92,0-2.88,0
				c-0.84-0.83-1.69-1.66-2.53-2.49c0.01-1.42,0.02-2.84,0.03-4.27c0.85-0.82,1.69-1.64,2.53-2.46c1.02,0,2.04,0,3.07,0
				c0.18,0.17,0.36,0.34,0.53,0.51c0-0.17,0-0.34,0-0.51c1,0,1.99,0,2.99-0.01C201.06,39.37,201.07,40.91,201.08,42.46z"/>
			<path class="st12" d="M211.76,53.19c-0.87-0.82-1.74-1.63-2.6-2.45c-0.05-3.5-0.1-7.01-0.16-10.51c0.83-0.84,1.65-1.68,2.48-2.52
				c1.37-0.02,2.73-0.05,4.1-0.08c0.85,0.81,1.7,1.61,2.56,2.41c0.09,3.5,0.18,7.01,0.28,10.51c-0.82,0.85-1.65,1.71-2.48,2.56
				C214.54,53.13,213.15,53.16,211.76,53.19z M215.35,49.4c-0.06-2.69-0.12-5.37-0.18-8.06c-0.26-0.24-0.51-0.49-0.77-0.73
				c-0.54,0.01-1.09,0.02-1.63,0.03c-0.25,0.25-0.49,0.51-0.74,0.76c0.05,2.69,0.1,5.37,0.15,8.06c0.26,0.24,0.52,0.49,0.78,0.73
				c0.55-0.01,1.1-0.02,1.65-0.03C214.85,49.91,215.1,49.65,215.35,49.4z"/>
			<path class="st12" d="M233.22,52.51c-0.04-0.99-0.09-1.98-0.13-2.97c0.25-0.01,0.5-0.02,0.74-0.03c-0.1-2.11-0.19-4.23-0.29-6.34
				c-0.54,1.05-1.09,2.11-1.64,3.16c-0.64-1-1.29-2-1.93-3.01c0.09,2.11,0.17,4.23,0.26,6.34c0.25-0.01,0.5-0.02,0.74-0.03
				c0.04,0.99,0.08,1.98,0.12,2.97c-1.52,0.06-3.04,0.12-4.56,0.18c-0.04-0.99-0.07-1.98-0.11-2.97c0.25-0.01,0.51-0.02,0.76-0.03
				c-0.12-3.18-0.24-6.36-0.36-9.55c-0.25,0.01-0.5,0.02-0.75,0.03c-0.04-0.99-0.07-1.98-0.11-2.97c1.22-0.04,2.44-0.09,3.66-0.14
				c0.66,1.05,1.33,2.1,2,3.14c0.57-1.1,1.14-2.2,1.7-3.3c1.22-0.06,2.44-0.11,3.66-0.18c0.05,0.99,0.1,1.98,0.15,2.96
				c-0.25,0.01-0.5,0.03-0.75,0.04c0.16,3.18,0.31,6.36,0.47,9.54c0.25-0.01,0.51-0.03,0.76-0.04c0.05,0.99,0.1,1.98,0.15,2.96
				C236.25,52.37,234.73,52.45,233.22,52.51z"/>
			<path class="st12" d="M245.83,51.85c-0.06-0.99-0.12-1.98-0.18-2.96c0.25-0.01,0.5-0.03,0.74-0.04
				c-0.19-3.18-0.39-6.36-0.58-9.54c-0.24,0.02-0.49,0.03-0.73,0.04c-0.06-0.99-0.12-1.98-0.18-2.96c3.06-0.18,6.11-0.39,9.17-0.6
				c0.1,1.4,0.2,2.81,0.3,4.22c-1,0.07-2,0.14-3,0.21c-0.03-0.42-0.06-0.84-0.09-1.26c-0.83,0.06-1.67,0.11-2.5,0.17
				c0.07,1.09,0.14,2.18,0.21,3.28c0.37-0.02,0.74-0.05,1.12-0.07c-0.02-0.27-0.04-0.54-0.05-0.8c1-0.07,2-0.13,3-0.2
				c0.11,1.52,0.21,3.05,0.32,4.57c-1.01,0.07-2.01,0.14-3.02,0.21c-0.02-0.27-0.04-0.54-0.05-0.8c-0.37,0.02-0.75,0.05-1.12,0.07
				c0.07,1.1,0.14,2.2,0.21,3.3c0.84-0.05,1.69-0.11,2.53-0.17c-0.03-0.42-0.06-0.84-0.09-1.26c1.01-0.07,2.02-0.14,3.02-0.21
				c0.1,1.4,0.2,2.81,0.3,4.22C252.06,51.46,248.95,51.67,245.83,51.85z"/>
			<path class="st12" d="M269.28,45.17c-2.15,0.19-4.3,0.38-6.46,0.55c-0.08-0.98-0.16-1.96-0.24-2.94
				c2.15-0.18,4.29-0.36,6.43-0.55C269.11,43.21,269.2,44.19,269.28,45.17z"/>
			<path class="st12" d="M283.73,43.74c-2.15,0.23-4.3,0.46-6.45,0.67c-0.1-0.98-0.2-1.96-0.29-2.93c2.14-0.21,4.29-0.44,6.43-0.67
				C283.52,41.78,283.62,42.76,283.73,43.74z"/>
			<path class="st12" d="M298.15,42.05c-2.15,0.27-4.29,0.53-6.44,0.79c-0.12-0.98-0.23-1.95-0.35-2.93
				c2.14-0.25,4.28-0.51,6.42-0.78C297.9,40.1,298.02,41.07,298.15,42.05z"/>
		</g>
	</g>
</g>
</svg>
